<svg width="32" height="33" viewBox="0 0 32 33" fill="none" xmlns="http://www.w3.org/2000/svg">
<mask id="mask0_6851_14968" style="mask-type:alpha" maskUnits="userSpaceOnUse" x="0" y="0" width="32" height="33">
<path d="M16.3998 32.5001C25.0154 32.5001 31.9998 25.3548 31.9998 16.5407C31.9998 7.72656 25.0154 0.581299 16.3998 0.581299C7.78416 0.581299 0.799805 7.72656 0.799805 16.5407C0.799805 25.3548 7.78416 32.5001 16.3998 32.5001Z" fill="#C4C4C4"/>
</mask>
<g mask="url(#mask0_6851_14968)">
<rect x="-6.29102" y="-6.67285" width="45.3818" height="46.4273" fill="url(#paint0_linear_6851_14968)"/>
<g clip-path="url(#clip0_6851_14968)">
<path fill-rule="evenodd" clip-rule="evenodd" d="M19.2142 39.5731L13.5635 36.3643L21.2083 23.7043L26.8589 26.913L19.2142 39.5731Z" fill="#FA6400"/>
<path fill-rule="evenodd" clip-rule="evenodd" d="M-8.5957 41.4349L-2.34721 44.5604H-0.247499L8.59975 29.9523L0.927941 25.6086L-8.5957 41.4349Z" fill="#5CB79F"/>
<path fill-rule="evenodd" clip-rule="evenodd" d="M14.929 32.7721L9.48633 29.7467L11.3118 26.7874L16.7545 29.8128L14.929 32.7721Z" fill="#B71277"/>
<path fill-rule="evenodd" clip-rule="evenodd" d="M19.7456 39.6575L32.7074 46.8742L64.9837 35.2373L32.4376 18.3293L19.7456 39.6575Z" fill="#F75F75"/>
<path fill-rule="evenodd" clip-rule="evenodd" d="M-5.22754 21.5175L8.8733 29.4625L11.3424 25.4096L-2.83945 17.3569L-5.22754 21.5175Z" fill="#DF3378"/>
<path fill-rule="evenodd" clip-rule="evenodd" d="M9.08495 42.2934L3.63672 39.2532L9.1794 30.2332L14.6276 33.2734L9.08495 42.2934Z" fill="#F5B554"/>
</g>
<path d="M10.0019 14.4953C10.1387 14.4388 10.2588 14.363 10.3614 14.268C10.4639 14.173 10.5442 14.0599 10.6027 13.9292C10.6608 13.799 10.6903 13.6592 10.6903 13.5114V11.9047C10.6903 11.7286 10.3598 11.5658 10.2775 11.418C10.3598 11.2627 10.6903 11.0973 10.6903 10.9207V9.14487C10.6903 8.99653 10.6613 8.85725 10.6027 8.72705C10.5447 8.59685 10.4639 8.48213 10.3614 8.38341C10.2588 8.2847 10.1387 8.20732 10.0019 8.15076C9.86467 8.0942 9.72119 8.06592 9.57047 8.06592H7.59863V14.5802H9.57047C9.72119 14.5802 9.86519 14.5519 10.0019 14.4953ZM9.44772 13.4169H8.84171V11.8012H9.44772V13.4169ZM9.44772 10.6368H8.84171V9.03068H9.44772V10.6368Z" fill="white"/>
<path d="M10.6893 14.8381H7.59766V15.4614H10.6893V14.8381Z" fill="white"/>
<path d="M13.7397 14.0226H12.3329V8.06543H11.0898V15.4719H13.7397V14.0226Z" fill="white"/>
<path d="M21.124 8.48265C21.0214 8.35939 20.9013 8.26227 20.7645 8.19184C20.6273 8.1214 20.4838 8.08618 20.3331 8.08618H19.1931C19.0356 8.08618 18.8901 8.1214 18.7564 8.19184C18.6228 8.26227 18.5047 8.35939 18.4021 8.48265C18.2996 8.60591 18.2188 8.74892 18.1608 8.91113C18.1028 9.07335 18.0732 9.24624 18.0732 9.4298V14.1383C18.0732 14.3219 18.1022 14.4964 18.1608 14.6623C18.2188 14.8283 18.2996 14.9707 18.4021 15.0908C18.5047 15.2109 18.6228 15.3059 18.7564 15.3763C18.8901 15.4467 19.0356 15.4819 19.1931 15.4819H20.3331C20.4838 15.4819 20.6273 15.4467 20.7645 15.3763C20.9013 15.3059 21.0214 15.2109 21.124 15.0908C21.2265 14.9707 21.3073 14.8283 21.3653 14.6623C21.4234 14.4969 21.4529 14.3219 21.4529 14.1383V12.9745H20.2103V14.0327H19.3168V9.53545H20.2103V10.6464H21.4529V9.4298C21.4529 9.24624 21.4239 9.07388 21.3653 8.91113C21.3073 8.74892 21.227 8.60645 21.124 8.48265Z" fill="white"/>
<path d="M23.0751 15.3448L23.2497 14.7734L23.6708 15.4713H25.2215L23.7526 13.1016L25.2624 8.0542H23.9375L23.0751 10.9426V8.0542H21.832V15.4713H23.0751V15.3448Z" fill="white"/>
<path d="M25.105 16.3074C24.8528 16.2663 24.5457 16.1926 23.6082 16.1926C22.5842 16.1926 21.7886 16.4797 21.7886 17.8729L21.7881 19.5976C21.7881 20.9908 22.5837 21.2779 23.6076 21.2779C24.5451 21.2779 24.8523 21.2042 25.1045 21.1632C25.2226 21.1466 25.262 21.1055 25.262 20.9908V20.4663C25.262 20.3761 25.191 20.3025 25.1045 20.3025H23.4978C23.041 20.3025 22.8758 20.1386 22.8758 19.5976L22.8763 19.1189H25.0113C25.0988 19.1184 25.1688 19.0447 25.1688 18.9551V18.3649C25.1688 18.2748 25.0978 18.2011 25.0113 18.2011H22.8763V17.8735C22.8763 17.3324 23.042 17.1686 23.4989 17.1686H25.1061C25.1936 17.1681 25.2635 17.0944 25.2635 17.0048V16.4802C25.2625 16.365 25.2231 16.3239 25.105 16.3074Z" fill="white"/>
<path d="M15.6412 16.3601H15.5568C15.4724 16.3601 15.405 16.4353 15.3879 16.5197L14.5654 21.1183V21.1519C14.5654 21.2191 14.6079 21.2778 14.6835 21.2778H14.7679C14.8524 21.2778 14.9197 21.2026 14.9363 21.1183L15.7588 16.5197V16.486C15.7588 16.4188 15.7168 16.3601 15.6412 16.3601Z" fill="white"/>
<path d="M13.7481 16.3601H12.9023C12.8386 16.3601 12.7748 16.4183 12.7666 16.5095L12.2906 20.1498C12.2823 20.2245 12.2823 20.2741 12.2507 20.2741C12.2186 20.2741 12.2186 20.2245 12.2025 20.1498L11.5162 17.9124C11.4686 17.7133 11.3567 17.5394 11.0138 17.5394H10.4627C10.1193 17.5394 10.008 17.7133 9.95978 17.9124L9.2735 20.1498C9.25744 20.2245 9.25744 20.2741 9.22584 20.2741C9.19425 20.2741 9.19373 20.2245 9.18596 20.1498L8.69339 16.5095C8.68562 16.4183 8.6214 16.3601 8.55769 16.3601H7.71187C7.63988 16.3601 7.57617 16.4017 7.57617 16.4764V16.501L8.24433 20.6055C8.31581 21.1279 8.54733 21.2773 8.96273 21.2773H9.39366C9.7526 21.2773 9.94424 21.0948 10.0561 20.6135L10.6865 18.55C10.7025 18.4753 10.7103 18.4588 10.7424 18.4588C10.774 18.4588 10.774 18.4753 10.7901 18.55L11.4204 20.6135C11.5323 21.0948 11.7234 21.2773 12.0829 21.2773H12.5138C12.9287 21.2773 13.1602 21.1279 13.2317 20.6055L13.8838 16.501V16.4764C13.8838 16.4017 13.8201 16.3601 13.7481 16.3601Z" fill="white"/>
<path d="M20.5938 16.3601H20.5006C20.4229 16.3601 20.3685 16.4359 20.353 16.5197L19.6481 20.8579C19.6403 20.8915 19.6014 20.9251 19.5937 20.9251C19.5921 20.9251 19.5916 20.9246 19.5906 20.924C19.5885 20.924 19.5869 20.9224 19.5849 20.9224C19.5621 20.9171 19.5543 20.8957 19.5476 20.8664L18.2776 16.6205C18.2309 16.478 18.1294 16.3601 17.9274 16.3601C17.9171 16.3601 17.9067 16.3606 17.8958 16.3617V16.3601L17.8808 16.3617V16.3601C17.7265 16.3777 17.5488 16.4866 17.4991 16.7688L16.7822 21.1183V21.1519C16.7822 21.2191 16.8211 21.2778 16.891 21.2778H16.9687C17.0464 21.2778 17.1085 21.2026 17.1241 21.1183L17.8409 16.7688C17.8477 16.7331 17.8658 16.7166 17.8803 16.7118V16.7134C17.8829 16.7128 17.8855 16.7118 17.8875 16.7118C17.8901 16.7118 17.8927 16.7128 17.8953 16.7134V16.715C17.9253 16.7192 17.9502 16.7416 17.958 16.7721L19.228 21.0094C19.2901 21.2186 19.3906 21.2778 19.5843 21.2778H19.5859L19.5906 21.2773V21.2778C19.7832 21.2751 19.9521 21.1247 19.9982 20.8584L20.7031 16.5202V16.4866C20.7026 16.4193 20.6715 16.3601 20.5938 16.3601Z" fill="white"/>
<path d="M16.5982 8.06543H15.4173L14.082 15.4617H15.3557L15.6328 13.9169H16.403L16.6801 15.4617H17.9537L16.5982 8.06543ZM15.7317 12.4671L16.0124 11.1774L16.3035 12.4671H15.7317Z" fill="white"/>
</g>
<defs>
<linearGradient id="paint0_linear_6851_14968" x1="31.8331" y1="-1.91219" x2="-1.82205" y2="29.6419" gradientUnits="userSpaceOnUse">
<stop stop-color="#4F4F4F" stop-opacity="0.98"/>
<stop offset="1"/>
</linearGradient>
<clipPath id="clip0_6851_14968">
<rect width="45.3818" height="43.3443" fill="white" transform="translate(-6.29102 -3.58984)"/>
</clipPath>
</defs>
</svg>
